<mxfile host="Electron" modified="2023-09-04T08:53:06.072Z" agent="Mozilla/5.0 (X11; Linux x86_64) AppleWebKit/537.36 (KHTML, like Gecko) draw.io/21.6.8 Chrome/114.0.5735.289 Electron/25.5.0 Safari/537.36" etag="j06oPX2Dm_FdlWKUTWLk" version="21.6.8" type="device">
  <diagram id="C5RBs43oDa-KdzZeNtuy" name="Page-1">
    <mxGraphModel dx="970" dy="687" grid="1" gridSize="10" guides="1" tooltips="1" connect="1" arrows="1" fold="1" page="1" pageScale="1" pageWidth="827" pageHeight="1169" math="0" shadow="0">
      <root>
        <mxCell id="WIyWlLk6GJQsqaUBKTNV-0" />
        <mxCell id="WIyWlLk6GJQsqaUBKTNV-1" parent="WIyWlLk6GJQsqaUBKTNV-0" />
        <mxCell id="ewnaA9aB15IOuHyST5io-16" style="edgeStyle=orthogonalEdgeStyle;rounded=0;orthogonalLoop=1;jettySize=auto;html=1;exitX=0.5;exitY=1;exitDx=0;exitDy=0;exitPerimeter=0;entryX=0.5;entryY=0;entryDx=0;entryDy=0;" parent="WIyWlLk6GJQsqaUBKTNV-1" source="ewnaA9aB15IOuHyST5io-6" target="ewnaA9aB15IOuHyST5io-13" edge="1">
          <mxGeometry relative="1" as="geometry" />
        </mxCell>
        <mxCell id="ewnaA9aB15IOuHyST5io-6" value="main" style="strokeWidth=2;html=1;shape=mxgraph.flowchart.start_1;whiteSpace=wrap;" parent="WIyWlLk6GJQsqaUBKTNV-1" vertex="1">
          <mxGeometry x="170" y="50" width="100" height="60" as="geometry" />
        </mxCell>
        <mxCell id="ewnaA9aB15IOuHyST5io-21" style="edgeStyle=orthogonalEdgeStyle;rounded=0;orthogonalLoop=1;jettySize=auto;html=1;exitX=0.5;exitY=1;exitDx=0;exitDy=0;" parent="WIyWlLk6GJQsqaUBKTNV-1" source="ewnaA9aB15IOuHyST5io-13" target="ewnaA9aB15IOuHyST5io-20" edge="1">
          <mxGeometry relative="1" as="geometry" />
        </mxCell>
        <mxCell id="ewnaA9aB15IOuHyST5io-23" value="" style="group" parent="WIyWlLk6GJQsqaUBKTNV-1" vertex="1" connectable="0">
          <mxGeometry x="30" y="160" width="240" height="50" as="geometry" />
        </mxCell>
        <mxCell id="ewnaA9aB15IOuHyST5io-13" value="Flags.parse_argv" style="rounded=0;whiteSpace=wrap;html=1;" parent="ewnaA9aB15IOuHyST5io-23" vertex="1">
          <mxGeometry x="140" width="100" height="50" as="geometry" />
        </mxCell>
        <mxCell id="ewnaA9aB15IOuHyST5io-19" value="配置命令行参数" style="text;html=1;strokeColor=none;fillColor=none;align=center;verticalAlign=middle;whiteSpace=wrap;rounded=0;" parent="ewnaA9aB15IOuHyST5io-23" vertex="1">
          <mxGeometry y="10" width="130" height="30" as="geometry" />
        </mxCell>
        <mxCell id="ewnaA9aB15IOuHyST5io-24" value="" style="group" parent="WIyWlLk6GJQsqaUBKTNV-1" vertex="1" connectable="0">
          <mxGeometry x="55" y="270" width="215" height="50" as="geometry" />
        </mxCell>
        <mxCell id="ewnaA9aB15IOuHyST5io-20" value="Debug.set_dflags" style="rounded=0;whiteSpace=wrap;html=1;" parent="ewnaA9aB15IOuHyST5io-24" vertex="1">
          <mxGeometry x="115" width="100" height="50" as="geometry" />
        </mxCell>
        <mxCell id="ewnaA9aB15IOuHyST5io-22" value="配置调试参数" style="text;html=1;strokeColor=none;fillColor=none;align=center;verticalAlign=middle;whiteSpace=wrap;rounded=0;" parent="ewnaA9aB15IOuHyST5io-24" vertex="1">
          <mxGeometry y="10" width="95" height="30" as="geometry" />
        </mxCell>
        <mxCell id="ewnaA9aB15IOuHyST5io-26" style="edgeStyle=orthogonalEdgeStyle;rounded=0;orthogonalLoop=1;jettySize=auto;html=1;exitX=0.5;exitY=1;exitDx=0;exitDy=0;entryX=0.5;entryY=0;entryDx=0;entryDy=0;" parent="WIyWlLk6GJQsqaUBKTNV-1" source="ewnaA9aB15IOuHyST5io-20" target="ewnaA9aB15IOuHyST5io-25" edge="1">
          <mxGeometry relative="1" as="geometry" />
        </mxCell>
        <mxCell id="ewnaA9aB15IOuHyST5io-28" value="" style="group" parent="WIyWlLk6GJQsqaUBKTNV-1" vertex="1" connectable="0">
          <mxGeometry x="65" y="360" width="205" height="50" as="geometry" />
        </mxCell>
        <mxCell id="ewnaA9aB15IOuHyST5io-25" value="output_on_level L_debug" style="rounded=0;whiteSpace=wrap;html=1;" parent="ewnaA9aB15IOuHyST5io-28" vertex="1">
          <mxGeometry x="105" width="100" height="50" as="geometry" />
        </mxCell>
        <mxCell id="ewnaA9aB15IOuHyST5io-27" value="配置日志参数" style="text;html=1;strokeColor=none;fillColor=none;align=center;verticalAlign=middle;whiteSpace=wrap;rounded=0;" parent="ewnaA9aB15IOuHyST5io-28" vertex="1">
          <mxGeometry y="10" width="85" height="30" as="geometry" />
        </mxCell>
        <mxCell id="ewnaA9aB15IOuHyST5io-32" style="edgeStyle=orthogonalEdgeStyle;rounded=0;orthogonalLoop=1;jettySize=auto;html=1;exitX=0.5;exitY=1;exitDx=0;exitDy=0;" parent="WIyWlLk6GJQsqaUBKTNV-1" source="ewnaA9aB15IOuHyST5io-25" target="ewnaA9aB15IOuHyST5io-30" edge="1">
          <mxGeometry relative="1" as="geometry" />
        </mxCell>
        <mxCell id="ewnaA9aB15IOuHyST5io-33" value="" style="group" parent="WIyWlLk6GJQsqaUBKTNV-1" vertex="1" connectable="0">
          <mxGeometry x="55" y="460" width="215" height="40" as="geometry" />
        </mxCell>
        <mxCell id="ewnaA9aB15IOuHyST5io-30" value="Stat.start_timer" style="rounded=0;whiteSpace=wrap;html=1;" parent="ewnaA9aB15IOuHyST5io-33" vertex="1">
          <mxGeometry x="115" width="100" height="40" as="geometry" />
        </mxCell>
        <mxCell id="ewnaA9aB15IOuHyST5io-31" value="开启全局计时器" style="text;strokeColor=none;fillColor=none;align=left;verticalAlign=middle;spacingLeft=4;spacingRight=4;overflow=hidden;points=[[0,0.5],[1,0.5]];portConstraint=eastwest;rotatable=0;whiteSpace=wrap;html=1;" parent="ewnaA9aB15IOuHyST5io-33" vertex="1">
          <mxGeometry y="5" width="100" height="30" as="geometry" />
        </mxCell>
        <mxCell id="ewnaA9aB15IOuHyST5io-44" style="edgeStyle=orthogonalEdgeStyle;rounded=0;orthogonalLoop=1;jettySize=auto;html=1;exitX=0.5;exitY=1;exitDx=0;exitDy=0;" parent="WIyWlLk6GJQsqaUBKTNV-1" source="ewnaA9aB15IOuHyST5io-34" target="ewnaA9aB15IOuHyST5io-57" edge="1">
          <mxGeometry relative="1" as="geometry">
            <mxPoint x="220" y="760" as="targetPoint" />
          </mxGeometry>
        </mxCell>
        <mxCell id="ewnaA9aB15IOuHyST5io-45" value="Lustre" style="edgeLabel;html=1;align=center;verticalAlign=middle;resizable=0;points=[];" parent="ewnaA9aB15IOuHyST5io-44" vertex="1" connectable="0">
          <mxGeometry x="-0.0311" y="3" relative="1" as="geometry">
            <mxPoint as="offset" />
          </mxGeometry>
        </mxCell>
        <mxCell id="ewnaA9aB15IOuHyST5io-46" style="edgeStyle=orthogonalEdgeStyle;rounded=0;orthogonalLoop=1;jettySize=auto;html=1;exitX=1;exitY=0.5;exitDx=0;exitDy=0;" parent="WIyWlLk6GJQsqaUBKTNV-1" source="ewnaA9aB15IOuHyST5io-34" edge="1">
          <mxGeometry relative="1" as="geometry">
            <mxPoint x="380" y="679.6666666666667" as="targetPoint" />
          </mxGeometry>
        </mxCell>
        <mxCell id="ewnaA9aB15IOuHyST5io-53" value="Native" style="edgeLabel;html=1;align=center;verticalAlign=middle;resizable=0;points=[];" parent="ewnaA9aB15IOuHyST5io-46" vertex="1" connectable="0">
          <mxGeometry x="-0.1511" y="1" relative="1" as="geometry">
            <mxPoint as="offset" />
          </mxGeometry>
        </mxCell>
        <mxCell id="ewnaA9aB15IOuHyST5io-34" value="Flags.input_format" style="rhombus;whiteSpace=wrap;html=1;" parent="WIyWlLk6GJQsqaUBKTNV-1" vertex="1">
          <mxGeometry x="152.5" y="645" width="135" height="70" as="geometry" />
        </mxCell>
        <mxCell id="ewnaA9aB15IOuHyST5io-37" style="edgeStyle=orthogonalEdgeStyle;rounded=0;orthogonalLoop=1;jettySize=auto;html=1;exitX=0.5;exitY=1;exitDx=0;exitDy=0;" parent="WIyWlLk6GJQsqaUBKTNV-1" source="ewnaA9aB15IOuHyST5io-35" target="ewnaA9aB15IOuHyST5io-34" edge="1">
          <mxGeometry relative="1" as="geometry" />
        </mxCell>
        <mxCell id="ewnaA9aB15IOuHyST5io-36" style="edgeStyle=orthogonalEdgeStyle;rounded=0;orthogonalLoop=1;jettySize=auto;html=1;exitX=0.5;exitY=1;exitDx=0;exitDy=0;" parent="WIyWlLk6GJQsqaUBKTNV-1" source="ewnaA9aB15IOuHyST5io-30" target="ewnaA9aB15IOuHyST5io-35" edge="1">
          <mxGeometry relative="1" as="geometry" />
        </mxCell>
        <mxCell id="ewnaA9aB15IOuHyST5io-39" value="判断文件格式" style="text;html=1;strokeColor=none;fillColor=none;align=center;verticalAlign=middle;whiteSpace=wrap;rounded=0;" parent="WIyWlLk6GJQsqaUBKTNV-1" vertex="1">
          <mxGeometry x="70.5" y="665" width="82" height="30" as="geometry" />
        </mxCell>
        <mxCell id="ewnaA9aB15IOuHyST5io-43" value="" style="group" parent="WIyWlLk6GJQsqaUBKTNV-1" vertex="1" connectable="0">
          <mxGeometry x="90" y="550" width="185" height="50" as="geometry" />
        </mxCell>
        <mxCell id="ewnaA9aB15IOuHyST5io-35" value="&amp;nbsp;Flags.input_file" style="shape=parallelogram;perimeter=parallelogramPerimeter;whiteSpace=wrap;html=1;fixedSize=1;" parent="ewnaA9aB15IOuHyST5io-43" vertex="1">
          <mxGeometry x="75" width="110" height="50" as="geometry" />
        </mxCell>
        <mxCell id="ewnaA9aB15IOuHyST5io-38" value="文件输入" style="text;html=1;strokeColor=none;fillColor=none;align=center;verticalAlign=middle;whiteSpace=wrap;rounded=0;" parent="ewnaA9aB15IOuHyST5io-43" vertex="1">
          <mxGeometry y="10" width="60" height="30" as="geometry" />
        </mxCell>
        <mxCell id="ewnaA9aB15IOuHyST5io-59" style="edgeStyle=orthogonalEdgeStyle;rounded=0;orthogonalLoop=1;jettySize=auto;html=1;exitX=0.5;exitY=1;exitDx=0;exitDy=0;" parent="WIyWlLk6GJQsqaUBKTNV-1" source="ewnaA9aB15IOuHyST5io-47" edge="1">
          <mxGeometry relative="1" as="geometry">
            <mxPoint x="220" y="880" as="targetPoint" />
            <Array as="points">
              <mxPoint x="440" y="840" />
              <mxPoint x="221" y="840" />
              <mxPoint x="221" y="880" />
            </Array>
          </mxGeometry>
        </mxCell>
        <mxCell id="ewnaA9aB15IOuHyST5io-47" value="InputSystem.&lt;br&gt;read_input_native&amp;nbsp;" style="rounded=0;whiteSpace=wrap;html=1;" parent="WIyWlLk6GJQsqaUBKTNV-1" vertex="1">
          <mxGeometry x="380" y="650" width="120" height="60" as="geometry" />
        </mxCell>
        <mxCell id="ewnaA9aB15IOuHyST5io-67" style="edgeStyle=orthogonalEdgeStyle;rounded=0;orthogonalLoop=1;jettySize=auto;html=1;exitX=0.5;exitY=1;exitDx=0;exitDy=0;" parent="WIyWlLk6GJQsqaUBKTNV-1" source="ewnaA9aB15IOuHyST5io-57" target="WIyWlLk6GJQsqaUBKTNV-10" edge="1">
          <mxGeometry relative="1" as="geometry" />
        </mxCell>
        <mxCell id="ewnaA9aB15IOuHyST5io-57" value="InputSystem.&lt;br&gt;read_input_lustre" style="rounded=0;whiteSpace=wrap;html=1;" parent="WIyWlLk6GJQsqaUBKTNV-1" vertex="1">
          <mxGeometry x="170" y="760" width="100" height="50" as="geometry" />
        </mxCell>
        <mxCell id="ewnaA9aB15IOuHyST5io-63" value="" style="group" parent="WIyWlLk6GJQsqaUBKTNV-1" vertex="1" connectable="0">
          <mxGeometry x="580" y="160" width="110" height="620" as="geometry" />
        </mxCell>
        <mxCell id="ewnaA9aB15IOuHyST5io-60" value="" style="strokeWidth=2;html=1;shape=mxgraph.flowchart.annotation_2;align=left;labelPosition=right;pointerEvents=1;direction=west;" parent="ewnaA9aB15IOuHyST5io-63" vertex="1">
          <mxGeometry width="50" height="620" as="geometry" />
        </mxCell>
        <mxCell id="ewnaA9aB15IOuHyST5io-62" value="setup" style="text;html=1;strokeColor=none;fillColor=none;align=center;verticalAlign=middle;whiteSpace=wrap;rounded=0;" parent="ewnaA9aB15IOuHyST5io-63" vertex="1">
          <mxGeometry x="50" y="295" width="60" height="30" as="geometry" />
        </mxCell>
        <mxCell id="ewnaA9aB15IOuHyST5io-68" style="edgeStyle=orthogonalEdgeStyle;rounded=0;orthogonalLoop=1;jettySize=auto;html=1;exitX=0.5;exitY=1;exitDx=0;exitDy=0;entryX=0.5;entryY=0;entryDx=0;entryDy=0;" parent="WIyWlLk6GJQsqaUBKTNV-1" source="WIyWlLk6GJQsqaUBKTNV-10" target="WIyWlLk6GJQsqaUBKTNV-11" edge="1">
          <mxGeometry relative="1" as="geometry" />
        </mxCell>
        <mxCell id="ewnaA9aB15IOuHyST5io-69" value="no" style="edgeLabel;html=1;align=center;verticalAlign=middle;resizable=0;points=[];" parent="ewnaA9aB15IOuHyST5io-68" vertex="1" connectable="0">
          <mxGeometry x="-0.0683" y="-2" relative="1" as="geometry">
            <mxPoint as="offset" />
          </mxGeometry>
        </mxCell>
        <mxCell id="WIyWlLk6GJQsqaUBKTNV-10" value="Flags.&lt;br&gt;Contracts.&lt;br&gt;translate_contracts" style="rhombus;whiteSpace=wrap;html=1;shadow=0;fontFamily=Helvetica;fontSize=12;align=center;strokeWidth=1;spacing=6;spacingTop=-4;" parent="WIyWlLk6GJQsqaUBKTNV-1" vertex="1">
          <mxGeometry x="140" y="880" width="160" height="90" as="geometry" />
        </mxCell>
        <mxCell id="WIyWlLk6GJQsqaUBKTNV-11" value="Kind2Flow.run" style="rounded=1;whiteSpace=wrap;html=1;fontSize=12;glass=0;strokeWidth=1;shadow=0;" parent="WIyWlLk6GJQsqaUBKTNV-1" vertex="1">
          <mxGeometry x="160" y="1030" width="120" height="40" as="geometry" />
        </mxCell>
        <mxCell id="ewnaA9aB15IOuHyST5io-49" value="InputSystem.&lt;br style=&quot;border-color: var(--border-color);&quot;&gt;translate_contracts_lustre" style="rounded=0;whiteSpace=wrap;html=1;" parent="WIyWlLk6GJQsqaUBKTNV-1" vertex="1">
          <mxGeometry x="390" y="895" width="150" height="60" as="geometry" />
        </mxCell>
        <mxCell id="ewnaA9aB15IOuHyST5io-51" style="edgeStyle=orthogonalEdgeStyle;rounded=0;orthogonalLoop=1;jettySize=auto;html=1;exitX=1;exitY=0.5;exitDx=0;exitDy=0;" parent="WIyWlLk6GJQsqaUBKTNV-1" source="WIyWlLk6GJQsqaUBKTNV-10" target="ewnaA9aB15IOuHyST5io-49" edge="1">
          <mxGeometry relative="1" as="geometry" />
        </mxCell>
        <mxCell id="ewnaA9aB15IOuHyST5io-52" value="yes" style="edgeLabel;html=1;align=center;verticalAlign=middle;resizable=0;points=[];" parent="ewnaA9aB15IOuHyST5io-51" vertex="1" connectable="0">
          <mxGeometry x="-0.0164" y="-3" relative="1" as="geometry">
            <mxPoint x="-2" y="-2" as="offset" />
          </mxGeometry>
        </mxCell>
        <mxCell id="ewnaA9aB15IOuHyST5io-66" value="" style="group" parent="WIyWlLk6GJQsqaUBKTNV-1" vertex="1" connectable="0">
          <mxGeometry x="580" y="900" width="100" height="155" as="geometry" />
        </mxCell>
        <mxCell id="ewnaA9aB15IOuHyST5io-10" value="" style="strokeWidth=2;html=1;shape=mxgraph.flowchart.annotation_2;align=left;labelPosition=right;pointerEvents=1;direction=west;" parent="ewnaA9aB15IOuHyST5io-66" vertex="1">
          <mxGeometry width="50" height="155" as="geometry" />
        </mxCell>
        <mxCell id="ewnaA9aB15IOuHyST5io-11" value="main" style="text;html=1;align=center;verticalAlign=middle;resizable=0;points=[];autosize=1;strokeColor=none;fillColor=none;" parent="ewnaA9aB15IOuHyST5io-66" vertex="1">
          <mxGeometry x="50" y="62.5" width="50" height="30" as="geometry" />
        </mxCell>
        <mxCell id="dbxCjNxU21uiZWLRtxmP-0" value="是否要翻译合约" style="text;html=1;strokeColor=none;fillColor=none;align=center;verticalAlign=middle;whiteSpace=wrap;rounded=0;" parent="WIyWlLk6GJQsqaUBKTNV-1" vertex="1">
          <mxGeometry x="40" y="910" width="93" height="30" as="geometry" />
        </mxCell>
      </root>
    </mxGraphModel>
  </diagram>
</mxfile>
